<mxfile host="app.diagrams.net" modified="2024-05-06T10:47:38.342Z" agent="Mozilla/5.0 (X11; Linux x86_64; rv:109.0) Gecko/20100101 Firefox/115.0" etag="selHd9T5rGXlJ_ibo1v5" version="24.3.1" type="device">
  <diagram name="Page-1" id="G4kIawC5zEKvVTdzqohK">
    <mxGraphModel dx="1195" dy="1763" grid="1" gridSize="10" guides="1" tooltips="1" connect="1" arrows="1" fold="1" page="1" pageScale="1" pageWidth="850" pageHeight="1100" math="0" shadow="0">
      <root>
        <mxCell id="0" />
        <mxCell id="1" parent="0" />
        <mxCell id="LYJuiLzA-LEmnEoee4dv-1" value="merchant" style="rounded=0;whiteSpace=wrap;html=1;" vertex="1" parent="1">
          <mxGeometry y="120" width="120" height="60" as="geometry" />
        </mxCell>
        <mxCell id="LYJuiLzA-LEmnEoee4dv-19" style="edgeStyle=orthogonalEdgeStyle;rounded=0;orthogonalLoop=1;jettySize=auto;html=1;fillColor=#ffe6cc;strokeColor=#d79b00;" edge="1" parent="1" source="LYJuiLzA-LEmnEoee4dv-5" target="LYJuiLzA-LEmnEoee4dv-18">
          <mxGeometry relative="1" as="geometry" />
        </mxCell>
        <mxCell id="LYJuiLzA-LEmnEoee4dv-22" value="06 cardDetails" style="edgeLabel;html=1;align=center;verticalAlign=middle;resizable=0;points=[];" vertex="1" connectable="0" parent="LYJuiLzA-LEmnEoee4dv-19">
          <mxGeometry x="-0.1444" y="1" relative="1" as="geometry">
            <mxPoint as="offset" />
          </mxGeometry>
        </mxCell>
        <mxCell id="LYJuiLzA-LEmnEoee4dv-30" style="edgeStyle=orthogonalEdgeStyle;rounded=0;orthogonalLoop=1;jettySize=auto;html=1;fillColor=#d5e8d4;strokeColor=#82b366;" edge="1" parent="1">
          <mxGeometry relative="1" as="geometry">
            <mxPoint x="820" y="110" as="sourcePoint" />
            <mxPoint x="710" y="30" as="targetPoint" />
            <Array as="points">
              <mxPoint x="820" y="30" />
            </Array>
          </mxGeometry>
        </mxCell>
        <mxCell id="LYJuiLzA-LEmnEoee4dv-37" value="05 FIND CARDS" style="edgeLabel;html=1;align=center;verticalAlign=middle;resizable=0;points=[];" vertex="1" connectable="0" parent="LYJuiLzA-LEmnEoee4dv-30">
          <mxGeometry x="0.125" y="-2" relative="1" as="geometry">
            <mxPoint as="offset" />
          </mxGeometry>
        </mxCell>
        <mxCell id="LYJuiLzA-LEmnEoee4dv-5" value="microservice&lt;br&gt;get free card" style="rounded=0;whiteSpace=wrap;html=1;" vertex="1" parent="1">
          <mxGeometry x="760" y="120" width="120" height="60" as="geometry" />
        </mxCell>
        <mxCell id="LYJuiLzA-LEmnEoee4dv-26" style="edgeStyle=orthogonalEdgeStyle;rounded=0;orthogonalLoop=1;jettySize=auto;html=1;entryX=0.5;entryY=1;entryDx=0;entryDy=0;fillColor=#ffe6cc;strokeColor=#d79b00;" edge="1" parent="1" source="LYJuiLzA-LEmnEoee4dv-8" target="LYJuiLzA-LEmnEoee4dv-5">
          <mxGeometry relative="1" as="geometry" />
        </mxCell>
        <mxCell id="LYJuiLzA-LEmnEoee4dv-47" value="04 IRequestPayment" style="edgeLabel;html=1;align=center;verticalAlign=middle;resizable=0;points=[];" vertex="1" connectable="0" parent="LYJuiLzA-LEmnEoee4dv-26">
          <mxGeometry x="0.415" y="-2" relative="1" as="geometry">
            <mxPoint as="offset" />
          </mxGeometry>
        </mxCell>
        <mxCell id="LYJuiLzA-LEmnEoee4dv-28" style="edgeStyle=orthogonalEdgeStyle;rounded=0;orthogonalLoop=1;jettySize=auto;html=1;entryX=0.5;entryY=1;entryDx=0;entryDy=0;fillColor=#d5e8d4;strokeColor=#82b366;" edge="1" parent="1" source="LYJuiLzA-LEmnEoee4dv-8" target="LYJuiLzA-LEmnEoee4dv-3">
          <mxGeometry relative="1" as="geometry">
            <mxPoint x="450" y="220" as="targetPoint" />
          </mxGeometry>
        </mxCell>
        <mxCell id="LYJuiLzA-LEmnEoee4dv-46" value="11 SEND DATA TO FRONTEND" style="edgeLabel;html=1;align=center;verticalAlign=middle;resizable=0;points=[];" vertex="1" connectable="0" parent="LYJuiLzA-LEmnEoee4dv-28">
          <mxGeometry x="0.4968" relative="1" as="geometry">
            <mxPoint as="offset" />
          </mxGeometry>
        </mxCell>
        <mxCell id="LYJuiLzA-LEmnEoee4dv-34" style="edgeStyle=orthogonalEdgeStyle;rounded=0;orthogonalLoop=1;jettySize=auto;html=1;entryX=0;entryY=0.5;entryDx=0;entryDy=0;fillColor=#d5e8d4;strokeColor=#82b366;dashed=1;dashPattern=8 8;" edge="1" parent="1" source="LYJuiLzA-LEmnEoee4dv-8" target="LYJuiLzA-LEmnEoee4dv-29">
          <mxGeometry relative="1" as="geometry">
            <Array as="points">
              <mxPoint x="620" y="-70" />
            </Array>
          </mxGeometry>
        </mxCell>
        <mxCell id="LYJuiLzA-LEmnEoee4dv-67" value="14 SUCCESS/ERROR" style="edgeLabel;html=1;align=center;verticalAlign=middle;resizable=0;points=[];" vertex="1" connectable="0" parent="LYJuiLzA-LEmnEoee4dv-34">
          <mxGeometry x="0.017" relative="1" as="geometry">
            <mxPoint as="offset" />
          </mxGeometry>
        </mxCell>
        <mxCell id="LYJuiLzA-LEmnEoee4dv-56" style="edgeStyle=orthogonalEdgeStyle;rounded=0;orthogonalLoop=1;jettySize=auto;html=1;fillColor=#fff2cc;strokeColor=#d6b656;dashed=1;dashPattern=12 12;" edge="1" parent="1">
          <mxGeometry relative="1" as="geometry">
            <mxPoint x="1500" y="160" as="targetPoint" />
            <mxPoint x="640" y="330" as="sourcePoint" />
          </mxGeometry>
        </mxCell>
        <mxCell id="LYJuiLzA-LEmnEoee4dv-61" value="&lt;div&gt;12 trigger check transaction&lt;/div&gt;&lt;div&gt;&lt;br&gt;&lt;/div&gt;" style="edgeLabel;html=1;align=center;verticalAlign=middle;resizable=0;points=[];" vertex="1" connectable="0" parent="LYJuiLzA-LEmnEoee4dv-56">
          <mxGeometry x="-0.2903" y="-2" relative="1" as="geometry">
            <mxPoint as="offset" />
          </mxGeometry>
        </mxCell>
        <mxCell id="LYJuiLzA-LEmnEoee4dv-8" value="API" style="rounded=0;whiteSpace=wrap;html=1;" vertex="1" parent="1">
          <mxGeometry x="520" y="290" width="120" height="60" as="geometry" />
        </mxCell>
        <mxCell id="LYJuiLzA-LEmnEoee4dv-13" value="" style="edgeStyle=orthogonalEdgeStyle;rounded=0;orthogonalLoop=1;jettySize=auto;html=1;fillColor=#ffe6cc;strokeColor=#d79b00;" edge="1" parent="1" source="LYJuiLzA-LEmnEoee4dv-1" target="LYJuiLzA-LEmnEoee4dv-3">
          <mxGeometry relative="1" as="geometry">
            <mxPoint x="520" y="150" as="targetPoint" />
            <mxPoint x="210" y="150" as="sourcePoint" />
          </mxGeometry>
        </mxCell>
        <mxCell id="LYJuiLzA-LEmnEoee4dv-14" value="01 redirect with _keys: IRequestTrigger" style="edgeLabel;html=1;align=center;verticalAlign=middle;resizable=0;points=[];" vertex="1" connectable="0" parent="LYJuiLzA-LEmnEoee4dv-13">
          <mxGeometry x="-0.258" y="1" relative="1" as="geometry">
            <mxPoint as="offset" />
          </mxGeometry>
        </mxCell>
        <mxCell id="LYJuiLzA-LEmnEoee4dv-15" style="edgeStyle=orthogonalEdgeStyle;rounded=0;orthogonalLoop=1;jettySize=auto;html=1;fillColor=#ffe6cc;strokeColor=#d79b00;" edge="1" parent="1" source="LYJuiLzA-LEmnEoee4dv-3" target="LYJuiLzA-LEmnEoee4dv-8">
          <mxGeometry relative="1" as="geometry">
            <mxPoint x="450" y="390" as="targetPoint" />
          </mxGeometry>
        </mxCell>
        <mxCell id="LYJuiLzA-LEmnEoee4dv-16" value="02 IRequestPayment" style="edgeLabel;html=1;align=center;verticalAlign=middle;resizable=0;points=[];" vertex="1" connectable="0" parent="LYJuiLzA-LEmnEoee4dv-15">
          <mxGeometry x="-0.1707" relative="1" as="geometry">
            <mxPoint as="offset" />
          </mxGeometry>
        </mxCell>
        <mxCell id="LYJuiLzA-LEmnEoee4dv-3" value="Frontend" style="rounded=0;whiteSpace=wrap;html=1;" vertex="1" parent="1">
          <mxGeometry x="390" y="120" width="120" height="60" as="geometry" />
        </mxCell>
        <mxCell id="LYJuiLzA-LEmnEoee4dv-24" style="edgeStyle=orthogonalEdgeStyle;rounded=0;orthogonalLoop=1;jettySize=auto;html=1;entryX=0;entryY=0.5;entryDx=0;entryDy=0;fillColor=#d5e8d4;strokeColor=#82b366;" edge="1" parent="1" source="LYJuiLzA-LEmnEoee4dv-18" target="LYJuiLzA-LEmnEoee4dv-23">
          <mxGeometry relative="1" as="geometry" />
        </mxCell>
        <mxCell id="LYJuiLzA-LEmnEoee4dv-48" value="08 &quot;200&quot;, &lt;br&gt;timestamps" style="edgeLabel;html=1;align=center;verticalAlign=middle;resizable=0;points=[];" vertex="1" connectable="0" parent="LYJuiLzA-LEmnEoee4dv-24">
          <mxGeometry x="0.0933" y="1" relative="1" as="geometry">
            <mxPoint as="offset" />
          </mxGeometry>
        </mxCell>
        <mxCell id="LYJuiLzA-LEmnEoee4dv-41" style="edgeStyle=orthogonalEdgeStyle;rounded=0;orthogonalLoop=1;jettySize=auto;html=1;fillColor=#d5e8d4;strokeColor=#82b366;" edge="1" parent="1" source="LYJuiLzA-LEmnEoee4dv-18">
          <mxGeometry relative="1" as="geometry">
            <mxPoint x="710" as="targetPoint" />
            <Array as="points">
              <mxPoint x="1050" />
            </Array>
          </mxGeometry>
        </mxCell>
        <mxCell id="LYJuiLzA-LEmnEoee4dv-42" value="07 AUTH STATUS" style="edgeLabel;html=1;align=center;verticalAlign=middle;resizable=0;points=[];" vertex="1" connectable="0" parent="LYJuiLzA-LEmnEoee4dv-41">
          <mxGeometry x="0.2532" y="2" relative="1" as="geometry">
            <mxPoint as="offset" />
          </mxGeometry>
        </mxCell>
        <mxCell id="LYJuiLzA-LEmnEoee4dv-18" value="microservice bank auth / start session" style="rounded=0;whiteSpace=wrap;html=1;" vertex="1" parent="1">
          <mxGeometry x="990" y="120" width="120" height="60" as="geometry" />
        </mxCell>
        <mxCell id="LYJuiLzA-LEmnEoee4dv-27" style="edgeStyle=orthogonalEdgeStyle;rounded=0;orthogonalLoop=1;jettySize=auto;html=1;fillColor=#d5e8d4;strokeColor=#82b366;entryX=0.508;entryY=1.03;entryDx=0;entryDy=0;entryPerimeter=0;" edge="1" parent="1" source="LYJuiLzA-LEmnEoee4dv-23" target="LYJuiLzA-LEmnEoee4dv-8">
          <mxGeometry relative="1" as="geometry">
            <mxPoint x="580" y="360" as="targetPoint" />
            <Array as="points">
              <mxPoint x="1290" y="400" />
              <mxPoint x="580" y="400" />
              <mxPoint x="580" y="350" />
              <mxPoint x="581" y="350" />
            </Array>
          </mxGeometry>
        </mxCell>
        <mxCell id="LYJuiLzA-LEmnEoee4dv-44" value="09 SEND DATA TO FRONTEND" style="edgeLabel;html=1;align=center;verticalAlign=middle;resizable=0;points=[];" vertex="1" connectable="0" parent="LYJuiLzA-LEmnEoee4dv-27">
          <mxGeometry x="0.3523" y="4" relative="1" as="geometry">
            <mxPoint x="1" as="offset" />
          </mxGeometry>
        </mxCell>
        <mxCell id="LYJuiLzA-LEmnEoee4dv-31" style="edgeStyle=orthogonalEdgeStyle;rounded=0;orthogonalLoop=1;jettySize=auto;html=1;fillColor=#d5e8d4;strokeColor=#82b366;entryX=1;entryY=0.5;entryDx=0;entryDy=0;" edge="1" parent="1" target="LYJuiLzA-LEmnEoee4dv-29">
          <mxGeometry relative="1" as="geometry">
            <mxPoint x="600" y="370" as="sourcePoint" />
            <mxPoint x="210" y="450" as="targetPoint" />
            <Array as="points">
              <mxPoint x="1150" y="380" />
              <mxPoint x="1150" y="-70" />
            </Array>
          </mxGeometry>
        </mxCell>
        <mxCell id="LYJuiLzA-LEmnEoee4dv-59" value="10 payment stage , timestamps" style="edgeLabel;html=1;align=center;verticalAlign=middle;resizable=0;points=[];" vertex="1" connectable="0" parent="LYJuiLzA-LEmnEoee4dv-31">
          <mxGeometry x="0.0897" y="-1" relative="1" as="geometry">
            <mxPoint as="offset" />
          </mxGeometry>
        </mxCell>
        <mxCell id="LYJuiLzA-LEmnEoee4dv-23" value="microservice send data trigger payment" style="rounded=0;whiteSpace=wrap;html=1;" vertex="1" parent="1">
          <mxGeometry x="1230" y="120" width="120" height="60" as="geometry" />
        </mxCell>
        <mxCell id="LYJuiLzA-LEmnEoee4dv-29" value="POSTGRESQL" style="rounded=0;whiteSpace=wrap;html=1;" vertex="1" parent="1">
          <mxGeometry x="760" y="-100" width="120" height="60" as="geometry" />
        </mxCell>
        <mxCell id="LYJuiLzA-LEmnEoee4dv-38" style="edgeStyle=orthogonalEdgeStyle;rounded=0;orthogonalLoop=1;jettySize=auto;html=1;fillColor=#ffe6cc;strokeColor=#d79b00;" edge="1" parent="1">
          <mxGeometry relative="1" as="geometry">
            <mxPoint x="640" y="300" as="sourcePoint" />
            <mxPoint x="750" y="-40" as="targetPoint" />
            <Array as="points">
              <mxPoint x="640" y="301" />
              <mxPoint x="710" y="301" />
              <mxPoint x="710" y="-40" />
            </Array>
          </mxGeometry>
        </mxCell>
        <mxCell id="LYJuiLzA-LEmnEoee4dv-39" value="03 PENDING" style="edgeLabel;html=1;align=center;verticalAlign=middle;resizable=0;points=[];" vertex="1" connectable="0" parent="LYJuiLzA-LEmnEoee4dv-38">
          <mxGeometry x="0.0796" y="-5" relative="1" as="geometry">
            <mxPoint as="offset" />
          </mxGeometry>
        </mxCell>
        <mxCell id="LYJuiLzA-LEmnEoee4dv-45" value="" style="endArrow=classic;html=1;rounded=0;exitX=0.5;exitY=1;exitDx=0;exitDy=0;fillColor=#ffe6cc;strokeColor=#d79b00;" edge="1" parent="1" source="LYJuiLzA-LEmnEoee4dv-8">
          <mxGeometry width="50" height="50" relative="1" as="geometry">
            <mxPoint x="610" y="370" as="sourcePoint" />
            <mxPoint x="600" y="370" as="targetPoint" />
          </mxGeometry>
        </mxCell>
        <mxCell id="LYJuiLzA-LEmnEoee4dv-60" style="edgeStyle=orthogonalEdgeStyle;rounded=0;orthogonalLoop=1;jettySize=auto;html=1;fillColor=#d5e8d4;strokeColor=#82b366;dashed=1;dashPattern=8 8;" edge="1" parent="1" source="LYJuiLzA-LEmnEoee4dv-53" target="LYJuiLzA-LEmnEoee4dv-8">
          <mxGeometry relative="1" as="geometry">
            <Array as="points">
              <mxPoint x="1510" y="340" />
            </Array>
          </mxGeometry>
        </mxCell>
        <mxCell id="LYJuiLzA-LEmnEoee4dv-62" value="13 payment found" style="edgeLabel;html=1;align=center;verticalAlign=middle;resizable=0;points=[];" vertex="1" connectable="0" parent="LYJuiLzA-LEmnEoee4dv-60">
          <mxGeometry x="0.1462" y="1" relative="1" as="geometry">
            <mxPoint as="offset" />
          </mxGeometry>
        </mxCell>
        <mxCell id="LYJuiLzA-LEmnEoee4dv-53" value="microservice parse payment" style="rounded=0;whiteSpace=wrap;html=1;" vertex="1" parent="1">
          <mxGeometry x="1440" y="90" width="120" height="60" as="geometry" />
        </mxCell>
        <mxCell id="LYJuiLzA-LEmnEoee4dv-64" style="edgeStyle=orthogonalEdgeStyle;rounded=0;orthogonalLoop=1;jettySize=auto;html=1;entryX=0.556;entryY=0.019;entryDx=0;entryDy=0;fillColor=#d5e8d4;strokeColor=#82b366;dashed=1;dashPattern=8 8;entryPerimeter=0;" edge="1" parent="1" target="LYJuiLzA-LEmnEoee4dv-3">
          <mxGeometry relative="1" as="geometry">
            <mxPoint x="620" y="-70.95238095238095" as="sourcePoint" />
            <mxPoint x="770" y="-60" as="targetPoint" />
            <Array as="points">
              <mxPoint x="610" y="-70" />
              <mxPoint x="457" y="-70" />
            </Array>
          </mxGeometry>
        </mxCell>
        <mxCell id="LYJuiLzA-LEmnEoee4dv-69" style="edgeStyle=orthogonalEdgeStyle;rounded=0;orthogonalLoop=1;jettySize=auto;html=1;fillColor=#d5e8d4;strokeColor=#82b366;dashed=1;dashPattern=8 8;" edge="1" parent="1">
          <mxGeometry relative="1" as="geometry">
            <mxPoint x="463" y="-71.95238095238095" as="sourcePoint" />
            <mxPoint x="60" y="110" as="targetPoint" />
            <Array as="points">
              <mxPoint x="453" y="-71" />
              <mxPoint x="300" y="-71" />
            </Array>
          </mxGeometry>
        </mxCell>
        <mxCell id="LYJuiLzA-LEmnEoee4dv-71" value="14 SUCCESS/ERROR" style="edgeLabel;html=1;align=center;verticalAlign=middle;resizable=0;points=[];" vertex="1" connectable="0" parent="LYJuiLzA-LEmnEoee4dv-69">
          <mxGeometry x="-0.1848" y="-1" relative="1" as="geometry">
            <mxPoint as="offset" />
          </mxGeometry>
        </mxCell>
      </root>
    </mxGraphModel>
  </diagram>
</mxfile>
